<svg width="218" height="83" viewBox="0 0 218 83" fill="none" xmlns="http://www.w3.org/2000/svg">
<rect y="11" width="218" height="72" rx="10" fill="#E1B58F"/>
<rect x="3" y="14" width="212" height="66" rx="10" fill="#FDFDFD"/>
<rect x="24" width="77" height="24" fill="#FDFDFD"/>
<path d="M34.098 15.112H37.026V16H33.006V7.636H34.098V15.112ZM41.0537 16.108C40.4377 16.108 39.8777 15.968 39.3737 15.688C38.8777 15.408 38.4857 15.012 38.1977 14.5C37.9177 13.98 37.7777 13.38 37.7777 12.7C37.7777 12.028 37.9217 11.436 38.2097 10.924C38.5057 10.404 38.9057 10.008 39.4097 9.736C39.9137 9.456 40.4777 9.316 41.1017 9.316C41.7257 9.316 42.2897 9.456 42.7937 9.736C43.2977 10.008 43.6937 10.4 43.9817 10.912C44.2777 11.424 44.4257 12.02 44.4257 12.7C44.4257 13.38 44.2737 13.98 43.9697 14.5C43.6737 15.012 43.2697 15.408 42.7577 15.688C42.2457 15.968 41.6777 16.108 41.0537 16.108ZM41.0537 15.148C41.4457 15.148 41.8137 15.056 42.1577 14.872C42.5017 14.688 42.7777 14.412 42.9857 14.044C43.2017 13.676 43.3097 13.228 43.3097 12.7C43.3097 12.172 43.2057 11.724 42.9977 11.356C42.7897 10.988 42.5177 10.716 42.1817 10.54C41.8457 10.356 41.4817 10.264 41.0897 10.264C40.6897 10.264 40.3217 10.356 39.9857 10.54C39.6577 10.716 39.3937 10.988 39.1937 11.356C38.9937 11.724 38.8937 12.172 38.8937 12.7C38.8937 13.236 38.9897 13.688 39.1817 14.056C39.3817 14.424 39.6457 14.7 39.9737 14.884C40.3017 15.06 40.6617 15.148 41.0537 15.148ZM48.5735 9.316C49.1415 9.316 49.6375 9.44 50.0615 9.688C50.4935 9.936 50.8135 10.248 51.0215 10.624V9.424H52.1255V16.144C52.1255 16.744 51.9975 17.276 51.7415 17.74C51.4855 18.212 51.1175 18.58 50.6375 18.844C50.1655 19.108 49.6135 19.24 48.9815 19.24C48.1175 19.24 47.3975 19.036 46.8215 18.628C46.2455 18.22 45.9055 17.664 45.8015 16.96H46.8815C47.0015 17.36 47.2495 17.68 47.6255 17.92C48.0015 18.168 48.4535 18.292 48.9815 18.292C49.5815 18.292 50.0695 18.104 50.4455 17.728C50.8295 17.352 51.0215 16.824 51.0215 16.144V14.764C50.8055 15.148 50.4855 15.468 50.0615 15.724C49.6375 15.98 49.1415 16.108 48.5735 16.108C47.9895 16.108 47.4575 15.964 46.9775 15.676C46.5055 15.388 46.1335 14.984 45.8615 14.464C45.5895 13.944 45.4535 13.352 45.4535 12.688C45.4535 12.016 45.5895 11.428 45.8615 10.924C46.1335 10.412 46.5055 10.016 46.9775 9.736C47.4575 9.456 47.9895 9.316 48.5735 9.316ZM51.0215 12.7C51.0215 12.204 50.9215 11.772 50.7215 11.404C50.5215 11.036 50.2495 10.756 49.9055 10.564C49.5695 10.364 49.1975 10.264 48.7895 10.264C48.3815 10.264 48.0095 10.36 47.6735 10.552C47.3375 10.744 47.0695 11.024 46.8695 11.392C46.6695 11.76 46.5695 12.192 46.5695 12.688C46.5695 13.192 46.6695 13.632 46.8695 14.008C47.0695 14.376 47.3375 14.66 47.6735 14.86C48.0095 15.052 48.3815 15.148 48.7895 15.148C49.1975 15.148 49.5695 15.052 49.9055 14.86C50.2495 14.66 50.5215 14.376 50.7215 14.008C50.9215 13.632 51.0215 13.196 51.0215 12.7ZM57.7341 8.356C57.5261 8.356 57.3501 8.284 57.2061 8.14C57.0621 7.996 56.9901 7.82 56.9901 7.612C56.9901 7.404 57.0621 7.228 57.2061 7.084C57.3501 6.94 57.5261 6.868 57.7341 6.868C57.9341 6.868 58.1021 6.94 58.2381 7.084C58.3821 7.228 58.4541 7.404 58.4541 7.612C58.4541 7.82 58.3821 7.996 58.2381 8.14C58.1021 8.284 57.9341 8.356 57.7341 8.356ZM58.2621 9.424V16H57.1701V9.424H58.2621ZM63.3272 9.304C64.1272 9.304 64.7752 9.548 65.2712 10.036C65.7672 10.516 66.0152 11.212 66.0152 12.124V16H64.9352V12.28C64.9352 11.624 64.7712 11.124 64.4432 10.78C64.1152 10.428 63.6672 10.252 63.0992 10.252C62.5232 10.252 62.0632 10.432 61.7192 10.792C61.3832 11.152 61.2152 11.676 61.2152 12.364V16H60.1232V9.424H61.2152V10.36C61.4312 10.024 61.7232 9.764 62.0912 9.58C62.4672 9.396 62.8792 9.304 63.3272 9.304ZM79.7582 9.424L77.7062 16H76.5782L74.9942 10.78L73.4102 16H72.2822L70.2182 9.424H71.3342L72.8462 14.944L74.4782 9.424H75.5942L77.1902 14.956L78.6782 9.424H79.7582ZM81.406 8.356C81.198 8.356 81.022 8.284 80.878 8.14C80.734 7.996 80.662 7.82 80.662 7.612C80.662 7.404 80.734 7.228 80.878 7.084C81.022 6.94 81.198 6.868 81.406 6.868C81.606 6.868 81.774 6.94 81.91 7.084C82.054 7.228 82.126 7.404 82.126 7.612C82.126 7.82 82.054 7.996 81.91 8.14C81.774 8.284 81.606 8.356 81.406 8.356ZM81.934 9.424V16H80.842V9.424H81.934ZM85.1271 10.324V14.2C85.1271 14.52 85.1951 14.748 85.3311 14.884C85.4671 15.012 85.7031 15.076 86.0391 15.076H86.8431V16H85.8591C85.2511 16 84.7951 15.86 84.4911 15.58C84.1871 15.3 84.0351 14.84 84.0351 14.2V10.324H83.1831V9.424H84.0351V7.768H85.1271V9.424H86.8431V10.324H85.1271ZM91.4302 9.304C91.9262 9.304 92.3742 9.412 92.7742 9.628C93.1742 9.836 93.4862 10.152 93.7102 10.576C93.9422 11 94.0582 11.516 94.0582 12.124V16H92.9782V12.28C92.9782 11.624 92.8142 11.124 92.4862 10.78C92.1582 10.428 91.7102 10.252 91.1422 10.252C90.5662 10.252 90.1062 10.432 89.7622 10.792C89.4262 11.152 89.2582 11.676 89.2582 12.364V16H88.1662V7.12H89.2582V10.36C89.4742 10.024 89.7702 9.764 90.1462 9.58C90.5302 9.396 90.9582 9.304 91.4302 9.304Z" fill="black"/>
</svg>
