<svg width="200" height="200" viewBox="0 0 200 200" fill="none" xmlns="http://www.w3.org/2000/svg">
<path d="M200 100C200 155.228 155.228 200 100 200C44.7715 200 -1.01647e-05 155.228 -1.01647e-05 100C-1.01647e-05 44.7715 44.7715 0 100 0C155.228 0 200 44.7715 200 100Z" fill="#8FE1D7" fill-opacity="0.6"/>
<g style="mix-blend-mode:hard-light" filter="url(#filter0_ddd)">
<path fill-rule="evenodd" clip-rule="evenodd" d="M148.118 79.4159C146.696 73.7295 144.691 67.4654 142.253 62.1173C139.827 56.7957 136.929 52.2829 133.676 50.2152C132.028 49.1681 130.262 48.7316 128.425 49.1679C126.602 49.6008 124.788 50.8745 122.991 53.0842C119.407 57.4926 115.752 65.7981 112.149 79.4092C109.932 87.7848 107.481 95.4791 104.893 102.456L89.3221 96.0745L88.9428 96.9998L104.543 103.393C96.7145 124.203 87.6857 138.496 80.1111 145.29C77.5635 147.575 75.2147 148.98 73.1638 149.523C71.1328 150.059 69.4085 149.75 68.0185 148.618C66.6052 147.467 65.4691 145.411 64.7696 142.318C64.0716 139.231 63.8207 135.165 64.1315 130.068L63.1334 130.007C62.8192 135.16 63.0683 139.328 63.7942 142.538C64.5185 145.741 65.73 148.044 67.3871 149.394C69.0674 150.762 71.136 151.093 73.4194 150.489C75.6831 149.891 78.1702 148.374 80.7788 146.034C88.5093 139.1 97.6079 124.66 105.468 103.773L119.443 109.5L119.822 108.575L105.818 102.835C108.425 95.8127 110.889 88.0762 113.116 79.6651C116.713 66.0763 120.325 57.9484 123.767 53.7151C125.484 51.604 127.123 50.5048 128.656 50.1408C130.175 49.7802 131.666 50.1229 133.139 51.0592C136.127 52.9581 138.925 57.2286 141.343 62.5321C143.749 67.809 145.736 74.0115 147.147 79.6585L148.118 79.4159Z" fill="black"/>
<path d="M142.253 62.1173L144.528 61.0803V61.0803L142.253 62.1173ZM148.118 79.4159L148.724 81.8413L151.149 81.2349L150.543 78.8096L148.118 79.4159ZM133.676 50.2152L135.017 48.1052V48.1052L133.676 50.2152ZM128.425 49.1679L129.003 51.6003V51.6003L128.425 49.1679ZM122.991 53.0842L121.052 51.507V51.507L122.991 53.0842ZM112.149 79.4092L109.732 78.7695V78.7695L112.149 79.4092ZM104.893 102.456L103.945 104.769L106.337 105.75L107.237 103.325L104.893 102.456ZM89.3221 96.0745L90.2701 93.7613L87.9569 92.8132L87.0088 95.1265L89.3221 96.0745ZM88.9428 96.9998L86.6296 96.0518L85.6815 98.365L87.9948 99.3131L88.9428 96.9998ZM104.543 103.393L106.882 104.273L107.737 102.001L105.491 101.08L104.543 103.393ZM80.1111 145.29L78.4418 143.429H78.4418L80.1111 145.29ZM73.1638 149.523L72.5249 147.106H72.5249L73.1638 149.523ZM68.0185 148.618L69.597 146.68L69.597 146.68L68.0185 148.618ZM64.7696 142.318L67.208 141.766H67.208L64.7696 142.318ZM64.1315 130.068L66.6269 130.22L66.779 127.724L64.2837 127.572L64.1315 130.068ZM63.1334 130.007L63.2855 127.511L60.7902 127.359L60.638 129.855L63.1334 130.007ZM63.7942 142.538L61.3557 143.089H61.3557L63.7942 142.538ZM67.3871 149.394L65.8085 151.332H65.8085L67.3871 149.394ZM73.4194 150.489L72.7804 148.072L73.4194 150.489ZM80.7788 146.034L79.1095 144.173L80.7788 146.034ZM105.468 103.773L106.416 101.459L104.035 100.483L103.128 102.892L105.468 103.773ZM119.443 109.5L118.495 111.813L120.808 112.761L121.756 110.448L119.443 109.5ZM119.822 108.575L122.135 109.523L123.083 107.209L120.77 106.261L119.822 108.575ZM105.818 102.835L103.475 101.966L102.634 104.232L104.87 105.149L105.818 102.835ZM113.116 79.6651L110.699 79.0254V79.0254L113.116 79.6651ZM123.767 53.7151L121.828 52.1379V52.1379L123.767 53.7151ZM128.656 50.1408L128.079 47.7085V47.7085L128.656 50.1408ZM133.139 51.0592L134.48 48.9492V48.9492L133.139 51.0592ZM141.343 62.5321L143.618 61.4951V61.4951L141.343 62.5321ZM147.147 79.6585L144.722 80.2648L145.328 82.6902L147.754 82.0838L147.147 79.6585ZM139.978 63.1543C142.335 68.3243 144.295 74.4346 145.692 80.0223L150.543 78.8096C149.097 73.0244 147.047 66.6065 144.528 61.0803L139.978 63.1543ZM132.335 52.3252C134.925 53.971 137.573 57.8783 139.978 63.1543L144.528 61.0803C142.081 55.7132 138.934 50.5948 135.017 48.1052L132.335 52.3252ZM129.003 51.6003C130.043 51.3533 131.123 51.5548 132.335 52.3252L135.017 48.1052C132.934 46.7814 130.482 46.11 127.847 46.7356L129.003 51.6003ZM124.931 54.6615C126.528 52.6981 127.905 51.8609 129.003 51.6003L127.847 46.7356C125.299 47.3407 123.049 49.0509 121.052 51.507L124.931 54.6615ZM114.566 80.049C118.154 66.4937 121.702 58.6323 124.931 54.6615L121.052 51.507C117.111 56.3529 113.35 65.1024 109.732 78.7695L114.566 80.049ZM107.237 103.325C109.854 96.2697 112.329 88.4986 114.566 80.049L109.732 78.7695C107.535 87.071 105.108 94.6884 102.549 101.586L107.237 103.325ZM88.374 98.3878L103.945 104.769L105.841 100.143L90.2701 93.7613L88.374 98.3878ZM91.2561 97.9479L91.6353 97.0226L87.0088 95.1265L86.6296 96.0518L91.2561 97.9479ZM105.491 101.08L89.8909 94.6866L87.9948 99.3131L103.595 105.706L105.491 101.08ZM81.7804 147.151C89.7936 139.963 98.9983 125.232 106.882 104.273L102.203 102.513C94.4308 123.173 85.5779 137.028 78.4418 143.429L81.7804 147.151ZM73.8028 151.939C76.3857 151.257 79.0801 149.573 81.7804 147.151L78.4418 143.429C76.0469 145.577 74.0437 146.704 72.5249 147.106L73.8028 151.939ZM66.4399 150.557C68.555 152.279 71.1395 152.644 73.8028 151.939L72.5249 147.106C71.1261 147.475 70.2619 147.221 69.597 146.68L66.4399 150.557ZM62.3311 142.869C63.0926 146.236 64.4174 148.91 66.4399 150.557L69.597 146.68C68.793 146.025 67.8457 144.586 67.208 141.766L62.3311 142.869ZM61.6362 129.915C61.3169 135.152 61.5633 139.473 62.3311 142.869L67.208 141.766C66.5799 138.989 66.3246 135.177 66.6269 130.22L61.6362 129.915ZM62.9812 132.502L63.9794 132.563L64.2837 127.572L63.2855 127.511L62.9812 132.502ZM66.2326 141.987C65.5766 139.086 65.323 135.172 65.6287 130.159L60.638 129.855C60.3153 135.147 60.56 139.57 61.3557 143.089L66.2326 141.987ZM68.9656 147.455C67.9181 146.602 66.8951 144.917 66.2326 141.987L61.3557 143.089C62.1418 146.566 63.542 149.487 65.8085 151.332L68.9656 147.455ZM72.7804 148.072C71.1272 148.509 69.9194 148.232 68.9656 147.455L65.8085 151.332C68.2154 153.292 71.1448 153.677 74.0584 152.906L72.7804 148.072ZM79.1095 144.173C76.6535 146.376 74.5121 147.615 72.7804 148.072L74.0584 152.906C76.854 152.167 79.6868 150.372 82.4481 147.895L79.1095 144.173ZM103.128 102.892C95.3245 123.629 86.402 137.632 79.1095 144.173L82.4481 147.895C90.6166 140.569 99.8912 125.69 107.808 104.653L103.128 102.892ZM120.391 107.187L106.416 101.459L104.52 106.086L118.495 111.813L120.391 107.187ZM117.509 107.626L117.13 108.552L121.756 110.448L122.135 109.523L117.509 107.626ZM104.87 105.149L118.874 110.888L120.77 106.261L106.767 100.522L104.87 105.149ZM110.699 79.0254C108.492 87.3623 106.052 95.0218 103.475 101.966L108.162 103.705C110.798 96.6035 113.286 88.79 115.533 80.3049L110.699 79.0254ZM121.828 52.1379C118.029 56.8089 114.311 65.3809 110.699 79.0254L115.533 80.3049C119.115 66.7717 122.62 59.088 125.707 55.2924L121.828 52.1379ZM128.079 47.7085C125.821 48.2446 123.745 49.7799 121.828 52.1379L125.707 55.2924C127.223 53.4282 128.426 52.765 129.234 52.5732L128.079 47.7085ZM134.48 48.9492C132.57 47.7354 130.393 47.1589 128.079 47.7085L129.234 52.5732C129.956 52.4016 130.762 52.5104 131.798 53.1691L134.48 48.9492ZM143.618 61.4951C141.18 56.1468 138.132 51.2702 134.48 48.9492L131.798 53.1691C134.122 54.6461 136.671 58.3105 139.068 63.5691L143.618 61.4951ZM149.573 79.0521C148.136 73.3064 146.105 66.9501 143.618 61.4951L139.068 63.5691C141.393 68.6679 143.335 74.7167 144.722 80.2648L149.573 79.0521ZM147.511 76.9906L146.541 77.2331L147.754 82.0838L148.724 81.8413L147.511 76.9906Z" fill="black"/>
</g>
<defs>
<filter id="filter0_ddd" x="56.5" y="46.4993" width="98.6492" height="114.778" filterUnits="userSpaceOnUse" color-interpolation-filters="sRGB">
<feFlood flood-opacity="0" result="BackgroundImageFix"/>
<feColorMatrix in="SourceAlpha" type="matrix" values="0 0 0 0 0 0 0 0 0 0 0 0 0 0 0 0 0 0 127 0"/>
<feOffset dy="4"/>
<feGaussianBlur stdDeviation="2"/>
<feColorMatrix type="matrix" values="0 0 0 0 0 0 0 0 0 0 0 0 0 0 0 0 0 0 0.25 0"/>
<feBlend mode="normal" in2="BackgroundImageFix" result="effect1_dropShadow"/>
<feColorMatrix in="SourceAlpha" type="matrix" values="0 0 0 0 0 0 0 0 0 0 0 0 0 0 0 0 0 0 127 0"/>
<feOffset dy="4"/>
<feGaussianBlur stdDeviation="2"/>
<feColorMatrix type="matrix" values="0 0 0 0 0 0 0 0 0 0 0 0 0 0 0 0 0 0 0.25 0"/>
<feBlend mode="normal" in2="effect1_dropShadow" result="effect2_dropShadow"/>
<feColorMatrix in="SourceAlpha" type="matrix" values="0 0 0 0 0 0 0 0 0 0 0 0 0 0 0 0 0 0 127 0"/>
<feOffset dy="4"/>
<feGaussianBlur stdDeviation="2"/>
<feColorMatrix type="matrix" values="0 0 0 0 0 0 0 0 0 0 0 0 0 0 0 0 0 0 0.25 0"/>
<feBlend mode="normal" in2="effect2_dropShadow" result="effect3_dropShadow"/>
<feBlend mode="normal" in="SourceGraphic" in2="effect3_dropShadow" result="shape"/>
</filter>
</defs>
</svg>
