<svg width="355" height="243" viewBox="0 0 355 243" fill="none" xmlns="http://www.w3.org/2000/svg">
<g clip-path="url(#clip0)">
<path opacity="0.1" d="M353.657 101.588C351.503 110.313 340.444 114.687 334.248 121.196C322.572 133.464 327.119 151.38 334.527 165.727C337.006 170.532 339.821 175.618 338.77 180.77C337.49 187.071 330.686 191.677 323.542 194.119C310.524 198.567 294.933 197.507 282.965 191.355C272.625 186.039 265.217 177.407 254.7 172.317C237.098 163.827 214.694 167.048 195.579 172.884C182.059 177.022 167.274 182.406 153.838 178.085C144.384 175.042 137.847 167.634 134.285 159.798C132.568 156.007 131.319 151.903 128.037 148.9C126.084 147.111 123.536 145.844 120.929 144.777C97.1 135.014 66.9971 140.243 43.865 129.413C28.237 122.101 18.2286 108.308 13.7993 93.923C9.37 79.5379 9.88453 64.4554 11.0097 49.6395C11.8094 39.101 13.2445 27.8744 21.3839 19.7473C29.9945 11.1522 44.7701 7.96897 58.1292 9.59004C71.4883 11.2111 83.5921 17.0476 94.2453 23.9038C107.573 32.4772 119.904 43.149 136.248 46.6205C147.378 48.9855 159.085 47.6899 170.566 47.2404C189.758 46.4934 208.957 48.1703 228.041 49.9804C237.34 50.87 246.669 51.803 255.888 53.1544C257.954 53.4561 260.02 53.7815 262.087 54.1308C263.122 54.3074 264.157 54.4903 265.186 54.6794C265.992 54.8251 266.795 54.9893 267.598 55.135C268.864 55.3809 270.127 55.6392 271.385 55.9099C274.999 56.6848 278.579 57.562 282.122 58.56C294.44 62.0347 304.315 68.3454 315.948 72.7529C323.529 75.6262 331.796 76.4197 338.974 80.0772C347.808 84.5685 355.923 92.4135 353.657 101.588Z" fill="#8FE1D7"/>
<path d="M291.343 148.082C308.844 148.082 323.03 133.895 323.03 116.395C323.03 98.8946 308.844 84.7079 291.343 84.7079C273.843 84.7079 259.657 98.8946 259.657 116.395C259.657 133.895 273.843 148.082 291.343 148.082Z" fill="#8FE1D7"/>
<path d="M257.645 139.425C275.145 139.425 289.332 125.238 289.332 107.738C289.332 90.2376 275.145 76.0509 257.645 76.0509C240.145 76.0509 225.958 90.2376 225.958 107.738C225.958 125.238 240.145 139.425 257.645 139.425Z" fill="#8FE1D7"/>
<path d="M220.549 139.734C238.05 139.734 252.236 125.548 252.236 108.048C252.236 90.5475 238.05 76.3608 220.549 76.3608C203.049 76.3608 188.863 90.5475 188.863 108.048C188.863 125.548 203.049 139.734 220.549 139.734Z" fill="#8FE1D7"/>
<path d="M208.492 148.082C225.992 148.082 240.179 133.895 240.179 116.395C240.179 98.8946 225.992 84.7079 208.492 84.7079C190.992 84.7079 176.805 98.8946 176.805 116.395C176.805 133.895 190.992 148.082 208.492 148.082Z" fill="#8FE1D7"/>
<path d="M188.088 150.865C205.588 150.865 219.775 136.678 219.775 119.178C219.775 101.678 205.588 87.4914 188.088 87.4914C170.588 87.4914 156.401 101.678 156.401 119.178C156.401 136.678 170.588 150.865 188.088 150.865Z" fill="#8FE1D7"/>
<path d="M179.741 125.824C197.241 125.824 211.427 111.637 211.427 94.1369C211.427 76.6367 197.241 62.45 179.741 62.45C162.24 62.45 148.054 76.6367 148.054 94.1369C148.054 111.637 162.24 125.824 179.741 125.824Z" fill="#8FE1D7"/>
<path d="M189.014 96.7622C206.515 96.7622 220.701 82.5755 220.701 65.0753C220.701 47.5752 206.515 33.3885 189.014 33.3885C171.514 33.3885 157.328 47.5752 157.328 65.0753C157.328 82.5755 171.514 96.7622 189.014 96.7622Z" fill="#8FE1D7"/>
<path d="M206.635 96.7622C224.136 96.7622 238.322 82.5755 238.322 65.0753C238.322 47.5752 224.136 33.3885 206.635 33.3885C189.135 33.3885 174.949 47.5752 174.949 65.0753C174.949 82.5755 189.135 96.7622 206.635 96.7622Z" fill="#8FE1D7"/>
<path d="M216.839 83.7781C234.339 83.7781 248.526 69.5914 248.526 52.0913C248.526 34.5911 234.339 20.4044 216.839 20.4044C199.339 20.4044 185.152 34.5911 185.152 52.0913C185.152 69.5914 199.339 83.7781 216.839 83.7781Z" fill="#8FE1D7"/>
<path d="M242.807 97.9989C260.308 97.9989 274.494 83.8122 274.494 66.3121C274.494 48.8119 260.308 34.6252 242.807 34.6252C225.307 34.6252 211.121 48.8119 211.121 66.3121C211.121 83.8122 225.307 97.9989 242.807 97.9989Z" fill="#8FE1D7"/>
<path d="M303.401 125.824C320.901 125.824 335.088 111.637 335.088 94.1369C335.088 76.6367 320.901 62.45 303.401 62.45C285.901 62.45 271.714 76.6367 271.714 94.1369C271.714 111.637 285.901 125.824 303.401 125.824Z" fill="#8FE1D7"/>
<path d="M285.16 110.056C302.66 110.056 316.847 95.8695 316.847 78.3693C316.847 60.8692 302.66 46.6825 285.16 46.6825C267.66 46.6825 253.473 60.8692 253.473 78.3693C253.473 95.8695 267.66 110.056 285.16 110.056Z" fill="#8FE1D7"/>
<path d="M273.412 94.2887C290.913 94.2887 305.099 80.1021 305.099 62.6019C305.099 45.1018 290.913 30.9151 273.412 30.9151C255.912 30.9151 241.726 45.1018 241.726 62.6019C241.726 80.1021 255.912 94.2887 273.412 94.2887Z" fill="#8FE1D7"/>
<path d="M251.155 70.4841C268.655 70.4841 282.841 56.2974 282.841 38.7973C282.841 21.2971 268.655 7.11044 251.155 7.11044C233.654 7.11044 219.468 21.2971 219.468 38.7973C219.468 56.2974 233.654 70.4841 251.155 70.4841Z" fill="#8FE1D7"/>
<path d="M292.58 96.7622C310.08 96.7622 324.267 82.5755 324.267 65.0753C324.267 47.5752 310.08 33.3885 292.58 33.3885C275.08 33.3885 260.893 47.5752 260.893 65.0753C260.893 82.5755 275.08 96.7622 292.58 96.7622Z" fill="#8FE1D7"/>
<g opacity="0.1">
<path opacity="0.1" d="M291.343 148.082C308.844 148.082 323.03 133.895 323.03 116.395C323.03 98.8947 308.844 84.708 291.343 84.708C273.843 84.708 259.657 98.8947 259.657 116.395C259.657 133.895 273.843 148.082 291.343 148.082Z" fill="black"/>
<path opacity="0.1" d="M257.645 139.425C275.145 139.425 289.332 125.238 289.332 107.738C289.332 90.2376 275.145 76.0509 257.645 76.0509C240.145 76.0509 225.958 90.2376 225.958 107.738C225.958 125.238 240.145 139.425 257.645 139.425Z" fill="black"/>
<path opacity="0.1" d="M220.549 139.735C238.05 139.735 252.236 125.548 252.236 108.048C252.236 90.5476 238.05 76.3609 220.549 76.3609C203.049 76.3609 188.863 90.5476 188.863 108.048C188.863 125.548 203.049 139.735 220.549 139.735Z" fill="black"/>
<path opacity="0.1" d="M208.492 148.082C225.992 148.082 240.179 133.895 240.179 116.395C240.179 98.8947 225.992 84.708 208.492 84.708C190.992 84.708 176.805 98.8947 176.805 116.395C176.805 133.895 190.992 148.082 208.492 148.082Z" fill="black"/>
<path opacity="0.1" d="M188.088 150.865C205.588 150.865 219.775 136.678 219.775 119.178C219.775 101.678 205.588 87.4914 188.088 87.4914C170.588 87.4914 156.401 101.678 156.401 119.178C156.401 136.678 170.588 150.865 188.088 150.865Z" fill="black"/>
<path opacity="0.1" d="M179.741 125.824C197.241 125.824 211.427 111.637 211.427 94.1369C211.427 76.6367 197.241 62.45 179.741 62.45C162.24 62.45 148.054 76.6367 148.054 94.1369C148.054 111.637 162.24 125.824 179.741 125.824Z" fill="black"/>
<path opacity="0.1" d="M189.014 96.7622C206.515 96.7622 220.701 82.5755 220.701 65.0754C220.701 47.5752 206.515 33.3885 189.014 33.3885C171.514 33.3885 157.328 47.5752 157.328 65.0754C157.328 82.5755 171.514 96.7622 189.014 96.7622Z" fill="black"/>
<path opacity="0.1" d="M206.635 96.7622C224.136 96.7622 238.322 82.5755 238.322 65.0754C238.322 47.5752 224.136 33.3885 206.635 33.3885C189.135 33.3885 174.949 47.5752 174.949 65.0754C174.949 82.5755 189.135 96.7622 206.635 96.7622Z" fill="black"/>
<path opacity="0.1" d="M216.839 83.7781C234.339 83.7781 248.526 69.5914 248.526 52.0913C248.526 34.5911 234.339 20.4044 216.839 20.4044C199.339 20.4044 185.152 34.5911 185.152 52.0913C185.152 69.5914 199.339 83.7781 216.839 83.7781Z" fill="black"/>
<path opacity="0.1" d="M242.807 97.9989C260.308 97.9989 274.494 83.8122 274.494 66.3121C274.494 48.8119 260.308 34.6252 242.807 34.6252C225.307 34.6252 211.121 48.8119 211.121 66.3121C211.121 83.8122 225.307 97.9989 242.807 97.9989Z" fill="black"/>
<path opacity="0.1" d="M303.401 125.824C320.901 125.824 335.088 111.637 335.088 94.1369C335.088 76.6367 320.901 62.45 303.401 62.45C285.901 62.45 271.714 76.6367 271.714 94.1369C271.714 111.637 285.901 125.824 303.401 125.824Z" fill="black"/>
<path opacity="0.1" d="M285.16 110.056C302.66 110.056 316.847 95.8696 316.847 78.3694C316.847 60.8692 302.66 46.6826 285.16 46.6826C267.66 46.6826 253.473 60.8692 253.473 78.3694C253.473 95.8696 267.66 110.056 285.16 110.056Z" fill="black"/>
<path opacity="0.1" d="M273.412 94.2887C290.913 94.2887 305.099 80.1021 305.099 62.6019C305.099 45.1018 290.913 30.9151 273.412 30.9151C255.912 30.9151 241.726 45.1018 241.726 62.6019C241.726 80.1021 255.912 94.2887 273.412 94.2887Z" fill="black"/>
<path opacity="0.1" d="M251.155 70.4841C268.655 70.4841 282.841 56.2974 282.841 38.7973C282.841 21.2971 268.655 7.11044 251.155 7.11044C233.654 7.11044 219.468 21.2971 219.468 38.7973C219.468 56.2974 233.654 70.4841 251.155 70.4841Z" fill="black"/>
<path opacity="0.1" d="M292.58 96.7622C310.08 96.7622 324.267 82.5755 324.267 65.0754C324.267 47.5752 310.08 33.3885 292.58 33.3885C275.08 33.3885 260.893 47.5752 260.893 65.0754C260.893 82.5755 275.08 96.7622 292.58 96.7622Z" fill="black"/>
</g>
<path d="M275.694 171.923C275.694 171.923 295.066 155.641 285.482 132.457L275.898 128.867L265.499 160.883L275.694 171.923Z" fill="#67647E"/>
<path opacity="0.1" d="M276.726 127.764L279.02 128.623L268.81 160.055L277.718 169.701C276.98 170.436 276.521 170.82 276.521 170.82L266.324 159.779L276.726 127.764Z" fill="black"/>
<path opacity="0.1" d="M179.62 242.107C274.884 242.107 352.11 229.179 352.11 213.231C352.11 197.284 274.884 184.356 179.62 184.356C84.3557 184.356 7.129 197.284 7.129 213.231C7.129 229.179 84.3557 242.107 179.62 242.107Z" fill="#8FE1D7"/>
<path d="M312.386 168.508C312.386 168.508 306.085 174.809 309.643 184.161C313.202 193.512 303.546 209.059 303.546 209.059L303.856 209.01C316.797 206.725 323.229 191.925 316.031 180.928C313.341 176.846 311.143 172.047 312.386 168.508Z" fill="#8FE1D7"/>
<path d="M312.386 168.508C312.386 168.508 308.828 176.232 312.386 182.533C315.945 188.835 313.006 206.518 303.543 209.059" stroke="#535461" stroke-width="0.309956" stroke-miterlimit="10"/>
<path d="M323.61 193.995C323.61 193.995 316.419 192.852 315.765 199.296C315.111 205.74 301.935 206.632 301.935 206.632L302.183 206.797C313.059 213.926 323.455 211.344 321.887 201.865C321.307 198.341 321.353 194.801 323.61 193.995Z" fill="#8FE1D7"/>
<path opacity="0.2" d="M323.61 193.995C323.61 193.995 316.419 192.852 315.765 199.296C315.111 205.74 301.935 206.632 301.935 206.632L302.183 206.797C313.059 213.926 323.455 211.344 321.887 201.865C321.307 198.341 321.353 194.801 323.61 193.995Z" fill="#F5F5F5"/>
<path d="M323.61 193.995C323.61 193.995 318.031 195.235 318.486 200.297C318.942 205.358 310.198 211.455 301.938 206.632" stroke="#535461" stroke-width="0.309956" stroke-miterlimit="10"/>
<path d="M188.206 138.011L190.722 148.085C190.722 148.085 208.505 150.403 220.36 148.946C222.456 148.649 224.468 147.923 226.271 146.814C227.272 146.222 228.853 145.965 231.014 147.583C234.714 150.372 252.878 172.689 249.936 195.843C249.708 197.587 248.911 199.208 247.669 200.454C246.427 201.7 244.809 202.502 243.065 202.736C239.443 203.23 235.98 204.54 232.938 206.567L223.95 212.553L316.115 210.538L306.547 198.955C306.547 198.955 300.001 193.416 294.964 192.911C293.495 192.765 292.283 191.417 291.303 189.585C285.566 178.845 278.703 168.746 271.264 159.104C265.846 152.08 261.299 144.678 261.724 140.029C262.731 128.948 261.724 110.819 261.724 110.819L242.587 108.302C242.587 108.302 245.104 132.478 221.938 138.519C198.772 144.561 188.206 138.011 188.206 138.011Z" fill="#67647E"/>
<g opacity="0.1">
<path opacity="0.1" d="M203.818 142.546C203.818 142.546 214.394 149.092 237.563 143.048C260.732 137.004 258.212 112.83 258.212 112.83L261.854 113.305C261.786 111.755 261.733 110.825 261.733 110.825L242.597 108.308C242.597 108.308 245.113 132.485 221.947 138.526C198.781 144.567 188.202 138.024 188.202 138.024L190.719 148.097C190.719 148.097 197.513 148.984 205.504 149.315L203.818 142.546Z" fill="black"/>
<path opacity="0.1" d="M248.551 211.099C251.593 209.071 255.055 207.761 258.677 207.268C260.417 207.037 262.033 206.239 263.274 204.998C264.516 203.757 265.314 202.142 265.546 200.402C268.503 177.249 250.33 154.891 246.638 152.114C242.609 149.092 240.594 152.616 240.594 152.616C239.168 152.991 237.718 153.267 236.255 153.444C242.783 162.123 252.122 178.77 249.936 195.868C249.704 197.608 248.906 199.223 247.665 200.464C246.423 201.704 244.808 202.502 243.068 202.733C239.446 203.227 235.983 204.537 232.941 206.564L223.953 212.549L247.125 212.044L248.551 211.099Z" fill="black"/>
</g>
<path d="M203.629 186.876C203.629 186.876 201.704 180.342 203.988 175.531C204.96 173.52 205.252 171.248 204.822 169.056C204.606 168.016 204.295 166.999 203.892 166.016" stroke="#535461" stroke-width="0.619913" stroke-miterlimit="10"/>
<path d="M205.331 162.975C205.331 163.775 203.88 166.099 203.88 166.099C203.88 166.099 202.439 163.775 202.439 162.975C202.439 162.59 202.592 162.221 202.864 161.949C203.136 161.677 203.505 161.524 203.889 161.524C204.274 161.524 204.643 161.677 204.915 161.949C205.187 162.221 205.34 162.59 205.34 162.975H205.331Z" fill="#8FE1D7"/>
<path d="M207.73 167.41C207.296 168.083 204.816 169.245 204.816 169.245C204.816 169.245 204.863 166.508 205.296 165.836C205.397 165.67 205.53 165.526 205.688 165.412C205.845 165.298 206.024 165.218 206.213 165.174C206.402 165.131 206.598 165.126 206.789 165.16C206.981 165.194 207.163 165.265 207.326 165.371C207.489 165.477 207.629 165.614 207.738 165.775C207.847 165.935 207.922 166.116 207.96 166.307C207.997 166.497 207.996 166.693 207.957 166.884C207.917 167.074 207.84 167.254 207.73 167.414V167.41Z" fill="#8FE1D7"/>
<path d="M207.624 174.986C206.908 175.345 204.184 175.097 204.184 175.097C204.184 175.097 205.603 172.757 206.319 172.398C206.489 172.312 206.675 172.261 206.865 172.247C207.055 172.233 207.246 172.256 207.427 172.316C207.607 172.376 207.775 172.47 207.919 172.595C208.063 172.719 208.182 172.871 208.267 173.041C208.353 173.211 208.404 173.396 208.418 173.586C208.432 173.776 208.409 173.967 208.349 174.148C208.29 174.329 208.195 174.496 208.07 174.641C207.946 174.785 207.794 174.903 207.624 174.989V174.986Z" fill="#8FE1D7"/>
<path d="M206.254 180.711C205.61 181.188 202.882 181.402 202.882 181.402C202.882 181.402 203.886 178.854 204.531 178.38C204.841 178.17 205.22 178.088 205.589 178.151C205.958 178.214 206.289 178.417 206.511 178.718C206.734 179.019 206.832 179.395 206.784 179.766C206.736 180.138 206.546 180.476 206.254 180.711Z" fill="#8FE1D7"/>
<path d="M201.769 169.407C202.343 169.965 205.021 170.544 205.021 170.544C205.021 170.544 204.367 167.885 203.781 167.327C203.503 167.072 203.136 166.935 202.759 166.946C202.382 166.957 202.023 167.115 201.76 167.385C201.497 167.656 201.35 168.019 201.35 168.396C201.35 168.773 201.497 169.136 201.76 169.407H201.769Z" fill="#8FE1D7"/>
<path d="M200.25 176.108C200.966 176.467 203.691 176.219 203.691 176.219C203.691 176.219 202.271 173.879 201.555 173.52C201.212 173.347 200.813 173.317 200.448 173.438C200.083 173.558 199.78 173.819 199.607 174.163C199.434 174.506 199.405 174.905 199.525 175.27C199.646 175.635 199.907 175.938 200.25 176.111V176.108Z" fill="#8FE1D7"/>
<path d="M199.668 182.831C200.312 183.308 203.04 183.522 203.04 183.522C203.04 183.522 202.036 180.974 201.391 180.5C201.081 180.29 200.702 180.208 200.333 180.271C199.964 180.334 199.633 180.537 199.41 180.838C199.188 181.139 199.09 181.515 199.138 181.886C199.186 182.258 199.376 182.596 199.668 182.831Z" fill="#8FE1D7"/>
<path d="M199.441 186.237C199.441 186.237 202.959 185.534 203.895 184.594C204.832 183.655 209.053 182.016 209.524 183.187C209.995 184.359 215.857 188.345 211.868 189.049C207.878 189.752 202.488 189.978 201.329 189.517C200.17 189.055 199.441 186.237 199.441 186.237Z" fill="#A8A8A8"/>
<path opacity="0.2" d="M211.871 188.624C207.885 189.328 202.491 189.554 201.332 189.092C200.439 188.735 199.819 187.018 199.575 186.222L199.457 186.247C199.457 186.247 200.16 189.061 201.332 189.529C202.504 189.997 207.897 189.765 211.871 189.061C213.021 188.856 213.349 188.382 213.225 187.778C213.126 188.162 212.726 188.466 211.871 188.624Z" fill="black"/>
<path d="M257.766 208.294C257.766 208.294 268.438 206.158 271.286 203.313C274.135 200.467 286.939 195.486 288.362 199.045C289.784 202.603 307.579 214.697 295.491 216.833C283.402 218.969 267.03 219.678 263.472 218.256C259.914 216.833 257.766 208.294 257.766 208.294Z" fill="#A8A8A8"/>
<path opacity="0.2" d="M295.478 215.509C283.39 217.645 267.018 218.355 263.46 216.932C260.751 215.847 258.866 210.64 258.122 208.219L257.766 208.294C257.766 208.294 259.901 216.833 263.457 218.256C267.012 219.678 283.381 218.969 295.475 216.833C298.968 216.213 299.966 214.769 299.588 212.94C299.294 214.133 298.076 215.054 295.478 215.509Z" fill="black"/>
<path d="M329.998 147.648C329.959 148.921 329.56 150.158 328.848 151.215C328.131 150.162 327.726 148.927 327.68 147.654C327.68 145.686 328.188 144.089 328.83 144.086C329.471 144.083 329.992 145.679 329.998 147.648Z" fill="#8FE1D7"/>
<path d="M242.501 145.918C242.458 147.192 242.056 148.427 241.341 149.483C240.627 148.427 240.225 147.192 240.182 145.918C240.182 143.95 240.7 142.354 241.341 142.354C241.983 142.354 242.501 143.95 242.501 145.918Z" fill="#8FE1D7"/>
<path d="M337.862 181.042C338.576 182.098 338.978 183.333 339.021 184.607C337.822 184.174 336.77 183.411 335.986 182.406C334.827 180.813 334.31 179.217 334.827 178.842C335.345 178.467 336.706 179.452 337.862 181.042Z" fill="#8FE1D7"/>
<path d="M300.834 162.38C300.791 163.654 300.39 164.889 299.675 165.944C298.961 164.889 298.559 163.654 298.516 162.38C298.516 160.412 299.033 158.815 299.675 158.815C300.317 158.815 300.834 160.418 300.834 162.38Z" fill="#8FE1D7"/>
<path d="M279.175 150.54C279.132 151.813 278.73 153.049 278.015 154.104C277.301 153.049 276.899 151.813 276.856 150.54C276.856 148.571 277.374 146.975 278.015 146.975C278.657 146.975 279.175 148.571 279.175 150.54Z" fill="#8FE1D7"/>
<path d="M265.738 157.758C266.334 158.885 266.599 160.157 266.504 161.428C265.355 160.87 264.387 159.997 263.714 158.911C262.734 157.204 262.394 155.561 262.948 155.242C263.503 154.922 264.762 156.051 265.738 157.758Z" fill="#8FE1D7"/>
<path d="M255.698 190.502C254.74 191.343 253.563 191.895 252.304 192.095C252.586 190.853 253.212 189.715 254.111 188.813C255.547 187.468 257.068 186.755 257.506 187.22C257.943 187.685 257.134 189.157 255.698 190.502Z" fill="#8FE1D7"/>
<path opacity="0.1" d="M255.698 190.502C254.74 191.343 253.563 191.895 252.304 192.095C252.586 190.853 253.212 189.715 254.111 188.813C255.547 187.468 257.068 186.755 257.506 187.22C257.943 187.685 257.134 189.157 255.698 190.502Z" fill="black"/>
<path d="M276.779 188.481C275.82 189.322 274.643 189.874 273.385 190.075C273.666 188.832 274.292 187.694 275.192 186.792C276.627 185.447 278.149 184.734 278.586 185.199C279.023 185.664 278.214 187.133 276.779 188.481Z" fill="#8FE1D7"/>
<path opacity="0.1" d="M276.779 188.481C275.82 189.322 274.643 189.874 273.385 190.075C273.666 188.832 274.292 187.694 275.192 186.792C276.627 185.447 278.149 184.734 278.586 185.199C279.023 185.664 278.214 187.133 276.779 188.481Z" fill="black"/>
<path d="M280.82 209.85C279.862 210.69 278.685 211.242 277.426 211.443C277.707 210.197 278.334 209.056 279.237 208.151C280.672 206.806 282.194 206.093 282.631 206.558C283.068 207.023 282.259 208.501 280.82 209.85Z" fill="#8FE1D7"/>
<path opacity="0.1" d="M280.82 209.85C279.862 210.69 278.685 211.242 277.426 211.443C277.707 210.197 278.334 209.056 279.237 208.151C280.672 206.806 282.194 206.093 282.631 206.558C283.068 207.023 282.259 208.501 280.82 209.85Z" fill="black"/>
<path d="M28.0417 175.689C32.7933 182.704 31.2777 207.816 31.2777 207.816C31.2777 207.816 7.39552 199.909 2.64389 192.898C0.362278 189.53 -0.487807 185.393 0.280646 181.398C1.0491 177.403 3.37314 173.876 6.74152 171.595C10.1099 169.313 14.2467 168.463 18.2418 169.232C22.2369 170 25.7632 172.324 28.0448 175.693L28.0417 175.689Z" fill="#8FE1D7"/>
<path opacity="0.1" d="M28.0417 175.689C32.7933 182.704 31.2777 207.816 31.2777 207.816C31.2777 207.816 7.39552 199.909 2.64389 192.898C0.362278 189.53 -0.487807 185.393 0.280646 181.398C1.0491 177.403 3.37314 173.876 6.74152 171.595C10.1099 169.313 14.2467 168.463 18.2418 169.232C22.2369 170 25.7632 172.324 28.0448 175.693L28.0417 175.689Z" fill="black"/>
<path d="M6.83142 171.61C6.83142 171.61 24.7283 185.428 31.3707 207.841" stroke="#535461" stroke-width="0.309956" stroke-miterlimit="10"/>
<path d="M35.8774 188.801C35.8774 188.801 23.1692 186.631 31.848 207.68C31.848 207.68 40.6787 204.314 41.3668 195.939C41.5033 194.309 41.0377 192.686 40.0581 191.377C39.0784 190.068 37.6528 189.163 36.051 188.835L35.8774 188.801Z" fill="#8FE1D7"/>
<path d="M36.0634 188.779C36.0634 188.779 38.4842 200.421 31.8604 207.686" stroke="#535461" stroke-width="0.309956" stroke-miterlimit="10"/>
<path d="M312.631 208.334C312.631 208.334 317.935 207.28 319.348 205.876C320.761 204.472 327.128 202.014 327.835 203.768C328.541 205.523 337.381 211.492 331.371 212.543C325.361 213.594 317.228 213.947 315.461 213.247C313.694 212.546 312.631 208.334 312.631 208.334Z" fill="#A8A8A8"/>
<path opacity="0.2" d="M331.381 211.895C325.37 212.949 317.237 213.3 315.47 212.599C314.125 212.063 313.189 209.499 312.817 208.3L312.641 208.337C312.641 208.337 313.701 212.549 315.47 213.253C317.24 213.957 325.37 213.603 331.381 212.549C333.116 212.239 333.612 211.533 333.426 210.628C333.268 211.214 332.664 211.669 331.381 211.895Z" fill="black"/>
<path d="M291.343 140.971C308.844 140.971 323.03 126.785 323.03 109.284C323.03 91.7842 308.844 77.5976 291.343 77.5976C273.843 77.5976 259.657 91.7842 259.657 109.284C259.657 126.785 273.843 140.971 291.343 140.971Z" fill="#8FE1D7"/>
<path d="M257.645 132.314C275.145 132.314 289.332 118.127 289.332 100.627C289.332 83.1272 275.145 68.9405 257.645 68.9405C240.145 68.9405 225.958 83.1272 225.958 100.627C225.958 118.127 240.145 132.314 257.645 132.314Z" fill="#8FE1D7"/>
<path d="M220.549 132.624C238.05 132.624 252.236 118.437 252.236 100.937C252.236 83.4371 238.05 69.2504 220.549 69.2504C203.049 69.2504 188.863 83.4371 188.863 100.937C188.863 118.437 203.049 132.624 220.549 132.624Z" fill="#8FE1D7"/>
<path d="M208.492 140.971C225.992 140.971 240.179 126.785 240.179 109.284C240.179 91.7842 225.992 77.5976 208.492 77.5976C190.992 77.5976 176.805 91.7842 176.805 109.284C176.805 126.785 190.992 140.971 208.492 140.971Z" fill="#8FE1D7"/>
<path d="M188.088 143.755C205.588 143.755 219.775 129.568 219.775 112.068C219.775 94.5677 205.588 80.381 188.088 80.381C170.588 80.381 156.401 94.5677 156.401 112.068C156.401 129.568 170.588 143.755 188.088 143.755Z" fill="#8FE1D7"/>
<path d="M179.741 118.713C197.241 118.713 211.427 104.527 211.427 87.0264C211.427 69.5263 197.241 55.3396 179.741 55.3396C162.24 55.3396 148.054 69.5263 148.054 87.0264C148.054 104.527 162.24 118.713 179.741 118.713Z" fill="#8FE1D7"/>
<path d="M189.014 89.6518C206.515 89.6518 220.701 75.4651 220.701 57.9649C220.701 40.4648 206.515 26.2781 189.014 26.2781C171.514 26.2781 157.328 40.4648 157.328 57.9649C157.328 75.4651 171.514 89.6518 189.014 89.6518Z" fill="#8FE1D7"/>
<path d="M206.635 89.6518C224.136 89.6518 238.322 75.4651 238.322 57.9649C238.322 40.4648 224.136 26.2781 206.635 26.2781C189.135 26.2781 174.949 40.4648 174.949 57.9649C174.949 75.4651 189.135 89.6518 206.635 89.6518Z" fill="#8FE1D7"/>
<path d="M216.839 76.6677C234.339 76.6677 248.526 62.481 248.526 44.9809C248.526 27.4807 234.339 13.294 216.839 13.294C199.339 13.294 185.152 27.4807 185.152 44.9809C185.152 62.481 199.339 76.6677 216.839 76.6677Z" fill="#8FE1D7"/>
<path d="M242.807 90.8885C260.308 90.8885 274.494 76.7018 274.494 59.2016C274.494 41.7015 260.308 27.5148 242.807 27.5148C225.307 27.5148 211.121 41.7015 211.121 59.2016C211.121 76.7018 225.307 90.8885 242.807 90.8885Z" fill="#8FE1D7"/>
<path d="M303.401 118.713C320.901 118.713 335.088 104.527 335.088 87.0264C335.088 69.5263 320.901 55.3396 303.401 55.3396C285.901 55.3396 271.714 69.5263 271.714 87.0264C271.714 104.527 285.901 118.713 303.401 118.713Z" fill="#8FE1D7"/>
<path d="M285.16 102.946C302.66 102.946 316.847 88.7591 316.847 71.259C316.847 53.7588 302.66 39.5721 285.16 39.5721C267.66 39.5721 253.473 53.7588 253.473 71.259C253.473 88.7591 267.66 102.946 285.16 102.946Z" fill="#8FE1D7"/>
<path d="M273.412 87.1783C290.913 87.1783 305.099 72.9916 305.099 55.4915C305.099 37.9913 290.913 23.8046 273.412 23.8046C255.912 23.8046 241.726 37.9913 241.726 55.4915C241.726 72.9916 255.912 87.1783 273.412 87.1783Z" fill="#8FE1D7"/>
<path d="M251.155 63.3737C268.655 63.3737 282.841 49.187 282.841 31.6868C282.841 14.1867 268.655 0 251.155 0C233.654 0 219.468 14.1867 219.468 31.6868C219.468 49.187 233.654 63.3737 251.155 63.3737Z" fill="#8FE1D7"/>
<path d="M292.58 89.6518C310.08 89.6518 324.267 75.4651 324.267 57.9649C324.267 40.4648 310.08 26.2781 292.58 26.2781C275.08 26.2781 260.893 40.4648 260.893 57.9649C260.893 75.4651 275.08 89.6518 292.58 89.6518Z" fill="#8FE1D7"/>
<path opacity="0.1" d="M322.891 62.9274C322.891 62.9274 293.38 48.9328 275.523 73.7355L322.891 62.9274Z" fill="black"/>
<path opacity="0.1" d="M245.377 34.5756C245.377 34.5756 212.732 33.59 206.322 63.4697L245.377 34.5756Z" fill="black"/>
<path opacity="0.1" d="M204.797 99.4061C204.797 99.4061 175.287 85.4085 157.43 110.205L204.797 99.4061Z" fill="black"/>
<path d="M75.6417 178.395C75.6417 178.395 77.3434 180.621 74.8545 183.975C72.3655 187.328 70.3136 190.174 71.135 192.269C71.135 192.269 74.8885 186.027 77.954 185.94C81.0195 185.853 79.0017 182.149 75.6417 178.395Z" fill="#8FE1D7"/>
<path opacity="0.1" d="M75.6417 178.395C75.7899 178.61 75.9067 178.845 75.9889 179.093C78.9707 182.595 80.5607 185.865 77.6937 185.949C75.0249 186.027 71.82 190.8 71.0544 192.006C71.0792 192.099 71.1092 192.191 71.1443 192.281C71.1443 192.281 74.8978 186.039 77.9633 185.952C81.0288 185.865 79.0017 182.149 75.6417 178.395Z" fill="black"/>
<path d="M78.8064 181.234C78.8064 182.019 78.7196 182.654 78.6111 182.654C78.5026 182.654 78.4158 182.034 78.4158 181.234C78.4158 180.435 78.5243 180.819 78.6328 180.819C78.7413 180.819 78.8064 180.45 78.8064 181.234Z" fill="#FFD037"/>
<path d="M79.8912 182.168C79.2031 182.543 78.6018 182.769 78.5522 182.673C78.5026 182.577 79.0171 182.195 79.7052 181.82C80.3933 181.445 80.1206 181.718 80.1733 181.82C80.226 181.923 80.5793 181.805 79.8912 182.168Z" fill="#FFD037"/>
<path d="M66.6468 178.395C66.6468 178.395 64.9452 180.621 67.4341 183.975C69.9231 187.328 71.975 190.174 71.1536 192.269C71.1536 192.269 67.4 186.027 64.3345 185.94C61.2691 185.853 63.2838 182.149 66.6468 178.395Z" fill="#8FE1D7"/>
<path opacity="0.1" d="M66.6469 178.395C66.4987 178.61 66.3819 178.845 66.2997 179.093C63.3179 182.595 61.7279 185.865 64.595 185.949C67.2637 186.027 70.4686 190.8 71.2342 192.006C71.2094 192.099 71.1794 192.191 71.1443 192.281C71.1443 192.281 67.3908 186.039 64.3253 185.952C61.2598 185.865 63.2838 182.149 66.6469 178.395Z" fill="black"/>
<path d="M63.4821 181.234C63.4821 182.019 63.5689 182.654 63.6774 182.654C63.7859 182.654 63.8727 182.034 63.8727 181.234C63.8727 180.435 63.7642 180.819 63.6557 180.819C63.5472 180.819 63.4821 180.45 63.4821 181.234Z" fill="#FFD037"/>
<path d="M62.3942 182.168C63.0823 182.543 63.6836 182.769 63.7332 182.673C63.7828 182.577 63.2683 182.195 62.5802 181.82C61.8921 181.445 62.1648 181.718 62.1121 181.82C62.0594 181.923 61.7185 181.805 62.3942 182.168Z" fill="#FFD037"/>
<path d="M64.0246 191.987C64.0246 191.987 68.7855 191.841 70.2237 190.818C71.6619 189.796 77.548 188.577 77.9013 190.214C78.2547 191.851 85.0551 198.363 79.6805 198.406C74.3059 198.45 67.1923 197.569 65.7603 196.695C64.3284 195.821 64.0246 191.987 64.0246 191.987Z" fill="#A8A8A8"/>
<path opacity="0.2" d="M79.7735 197.839C74.3988 197.882 67.2853 197.002 65.8533 196.128C64.7623 195.465 64.3284 193.081 64.1827 191.981H64.0246C64.0246 191.981 64.3346 195.821 65.7573 196.692C67.18 197.563 74.3027 198.447 79.6774 198.403C81.2272 198.403 81.7634 197.839 81.7355 197.021C81.5216 197.52 80.9358 197.83 79.7735 197.839Z" fill="black"/>
<path d="M37.0584 222.639C37.6265 222.175 38.0405 221.551 38.2455 220.847C38.4005 220.134 38.0967 219.282 37.4148 219.021C36.6524 218.73 35.8372 219.257 35.2204 219.793C34.6035 220.329 33.8937 220.937 33.0848 220.822C33.5005 220.445 33.8116 219.967 33.9876 219.434C34.1636 218.901 34.1985 218.332 34.089 217.782C34.054 217.553 33.9576 217.339 33.8101 217.162C33.3854 216.709 32.6198 216.904 32.1115 217.261C30.4997 218.395 30.0503 220.584 30.041 222.555C29.8798 221.845 30.0162 221.104 30.01 220.385C30.0038 219.666 29.8054 218.835 29.1917 218.457C28.8111 218.253 28.3837 218.151 27.9519 218.163C27.2266 218.135 26.4207 218.209 25.9248 218.739C25.3048 219.396 25.4691 220.503 26.0054 221.219C26.5416 221.935 27.3537 222.397 28.1038 222.899C28.7049 223.256 29.2177 223.745 29.6039 224.328C29.6494 224.409 29.6867 224.494 29.7155 224.582H34.2564C35.2738 224.064 36.2163 223.41 37.0584 222.639Z" fill="#8FE1D7"/>
<path d="M319.119 226.978C319.687 226.515 320.101 225.89 320.306 225.186C320.461 224.474 320.157 223.621 319.475 223.361C318.713 223.069 317.897 223.596 317.281 224.133C316.664 224.669 315.954 225.276 315.145 225.162C315.561 224.785 315.872 224.307 316.048 223.774C316.224 223.241 316.259 222.671 316.149 222.121C316.114 221.893 316.018 221.679 315.87 221.501C315.446 221.048 314.68 221.244 314.172 221.6C312.56 222.735 312.111 224.923 312.101 226.894C311.94 226.184 312.076 225.444 312.07 224.725C312.064 224.005 311.866 223.175 311.252 222.797C310.871 222.592 310.444 222.491 310.012 222.502C309.287 222.474 308.481 222.549 307.985 223.079C307.365 223.736 307.529 224.842 308.066 225.558C308.602 226.274 309.414 226.736 310.164 227.238C310.765 227.596 311.278 228.084 311.664 228.667C311.71 228.748 311.747 228.833 311.776 228.921H316.317C317.334 228.403 318.277 227.749 319.119 226.978Z" fill="#8FE1D7"/>
<path d="M213.464 225.298C213.464 225.298 213.154 230.152 213.774 230.958C213.774 230.958 199.541 233.546 197.761 232.737C195.982 231.928 196.791 230.635 197.761 230.149C198.732 229.662 203.586 227.883 204.23 224.489C204.23 224.489 202.129 223.519 208.92 224.799C215.711 226.079 213.464 225.298 213.464 225.298Z" fill="#DC9BA3"/>
<path opacity="0.05" d="M213.464 225.298C213.464 225.298 213.154 230.152 213.774 230.958C213.774 230.958 199.541 233.546 197.761 232.737C195.982 231.928 196.791 230.635 197.761 230.149C198.732 229.662 203.586 227.883 204.23 224.489C204.23 224.489 202.129 223.519 208.92 224.799C215.711 226.079 213.464 225.298 213.464 225.298Z" fill="black"/>
<path d="M268.943 178.228C268.943 178.228 267.164 181.139 268.295 186.801C269.426 192.464 265.385 192.461 265.385 192.461H257.301L254.552 185.332L258.432 185.642C258.432 185.642 261.02 184.994 259.889 179.009L268.943 178.228Z" fill="#FFD2D9"/>
<path d="M244.683 171.437C245.922 175.376 247.472 180.175 248.3 182.732L248.889 184.539L254.226 179.04C254.226 179.04 253.991 178.495 253.64 177.732C252.859 176.04 251.499 173.278 250.829 173.055C250.829 173.055 258.268 172.568 260.534 174.347C262.8 176.127 262.152 169.493 262.152 169.493C262.152 169.493 257.784 169.183 256.167 168.201C254.549 167.218 245.814 166.261 245.814 166.261C245.814 166.261 242.903 165.774 244.683 171.437Z" fill="#FFD2D9"/>
<path d="M196.156 219L197.287 227.248L200.198 226.938C200.198 226.938 200.374 226.77 200.672 226.504C201.456 225.812 203.09 224.458 204.652 223.714C205.18 223.444 205.754 223.273 206.344 223.209L203.108 218.355C202.321 218.65 201.514 218.889 200.694 219.071C199.841 219.272 198.969 219.376 198.093 219.381C197.428 219.391 196.768 219.261 196.156 219Z" fill="#FFD2D9"/>
<path d="M204.243 224.814C205.699 226.107 212.329 223.358 213.464 227.564L214.505 223.575L217.713 211.3L218.153 209.611L220.825 209.496L251.489 208.188L253.225 208.114L254.155 208.074L252.94 207.472L244.853 203.465C244.853 203.465 241.94 203.26 237.922 202.708C231.832 201.875 223.203 200.229 218.33 197.318C210.243 192.464 207.172 208.802 207.172 208.802C207.172 208.802 205.932 212.946 205.002 217.031C204.575 218.794 204.249 220.579 204.026 222.378C203.886 223.627 203.93 224.532 204.243 224.814Z" fill="#E9E9EF"/>
<path opacity="0.05" d="M204.243 224.815C205.699 226.107 212.329 223.358 213.464 227.564L214.505 223.575L217.713 211.3L218.154 209.611L220.909 209.441L250.535 207.618L252.363 207.503L252.928 207.469L253.656 207.423L244.841 203.459C244.841 203.459 241.927 203.254 237.91 202.702C231.82 201.868 223.19 200.223 218.318 197.312C210.231 192.458 207.159 208.796 207.159 208.796C207.159 208.796 205.92 212.94 204.99 217.025C204.563 218.788 204.237 220.573 204.013 222.372C203.886 223.627 203.93 224.532 204.243 224.815Z" fill="black"/>
<path opacity="0.1" d="M200.697 219.059L203.527 222.378L204.655 223.702C205.184 223.432 205.757 223.26 206.347 223.196L203.111 218.343C202.324 218.638 201.517 218.877 200.697 219.059Z" fill="black"/>
<path d="M200.849 218.668L204.013 222.388L205.538 224.176V224.663C207.398 225.093 213.222 223.866 214.505 223.584L214.756 223.528C218.476 223.689 232.226 215.603 232.226 215.603C232.226 215.603 247.268 218.191 254.542 217.543C258.606 217.18 259.747 215.711 259.96 214.481C260.054 213.873 259.97 213.25 259.719 212.689L253.21 208.117L252.348 207.497L250.972 206.527C250.972 206.527 248.579 205.985 245.541 205.315C240.793 204.267 234.466 202.907 233.186 202.811C231.085 202.65 225.747 204.429 222.673 207.987C222.145 208.542 221.549 209.029 220.9 209.434L220.816 209.49C219.951 210.064 218.888 210.671 217.716 211.294C213.802 213.355 208.582 215.572 204.993 217.025C202.538 218.026 200.849 218.668 200.849 218.668Z" fill="#E9E9EF"/>
<path opacity="0.1" d="M196.156 219L197.287 227.248L200.198 226.938C200.198 226.938 200.374 226.77 200.672 226.504C200.027 226.504 198.964 226.333 198.741 224.997C198.741 224.997 199.863 221.076 198.093 219.387C197.427 219.395 196.767 219.263 196.156 219Z" fill="black"/>
<path d="M198.409 224.976C198.409 224.976 200.027 219.316 196.308 218.668L190.161 221.095L183.032 221.582C183.032 221.582 181.173 224.616 184.151 228.019C184.97 228.942 185.968 229.689 187.083 230.217C188.198 230.744 189.409 231.04 190.642 231.088L198.409 231.444L200.849 226.439C200.849 226.439 198.744 226.916 198.409 224.976Z" fill="#DC9BA3"/>
<path opacity="0.1" d="M237.913 202.708C238.728 202.947 242.101 203.948 245.554 205.321C247.261 205.979 248.923 206.746 250.532 207.618C250.866 207.807 251.186 207.996 251.486 208.185C252.274 208.648 252.979 209.239 253.572 209.933C255.568 212.515 258.501 213.907 259.96 214.474C260.054 213.866 259.97 213.244 259.719 212.683L253.21 208.111L254.139 208.07L252.924 207.469L253.653 207.423L244.838 203.458C244.838 203.458 241.93 203.26 237.913 202.708Z" fill="black"/>
<path opacity="0.1" d="M248.312 182.735L248.901 184.542L254.239 179.043C254.239 179.043 254.003 178.498 253.653 177.735C252.962 179.158 249.741 181.656 248.312 182.735Z" fill="black"/>
<path d="M267.557 185.416C267.749 184.868 267.889 184.303 267.976 183.73L274.928 186.144C274.928 186.144 279.698 189.783 279.215 197.709C279.215 197.709 273.326 195.539 270.722 198.112L270.669 198.567C270.122 203.09 268.12 207.313 264.966 210.6C263.68 211.951 262.468 213.473 261.826 214.939C261.826 214.939 257.298 213.647 254.549 210.085C251.799 206.524 238.704 202.817 238.704 202.817C238.704 202.817 245.659 202.978 246.629 200.551C247.599 198.124 250.835 192.948 249.704 188.906C248.573 184.864 247.925 183.568 247.925 183.568C247.925 183.568 254.558 178.879 254.071 177.422L258.277 182.276L260.218 182.924C260.064 183.3 259.986 183.702 259.988 184.108C259.877 188.5 266.082 189.554 267.557 185.416Z" fill="#CEDAD5"/>
<path opacity="0.1" d="M260.131 181.163C260.082 180.559 260 179.958 259.886 179.362L268.943 178.553C268.943 178.553 268.323 179.096 268.044 181.117C266.981 181.737 265.741 182.598 264.414 182.598C262.868 182.6 261.364 182.096 260.131 181.163Z" fill="black"/>
<path d="M264.334 182.353C268.264 182.353 271.45 179.167 271.45 175.237C271.45 171.306 268.264 168.12 264.334 168.12C260.403 168.12 257.217 171.306 257.217 175.237C257.217 179.167 260.403 182.353 264.334 182.353Z" fill="#FFD2D9"/>
<path d="M269.591 177.097H268.621V174.347L267.65 171.437C267.65 171.437 262.796 169.171 260.521 169.658L258.755 171.266C258.755 171.266 258.268 167.386 261.182 165.929C264.095 164.472 269.268 165.12 270.564 166.239C271.86 167.358 273.973 169.314 272.343 174.651L271.869 175.965C271.869 175.965 269.913 175.317 269.591 177.097Z" fill="#844F6E"/>
<g opacity="0.05">
<path opacity="0.05" d="M257.019 180.832L256.489 180.655L254.046 177.837C254.094 177.704 254.1 177.559 254.062 177.422L257.019 180.832Z" fill="black"/>
<path opacity="0.05" d="M260.422 186.051C259.731 185.757 259.147 185.257 258.749 184.619C258.352 183.982 258.16 183.237 258.2 182.487C258.2 182.391 258.2 182.301 258.2 182.214L258.249 182.273L260.19 182.921C260.037 183.297 259.959 183.699 259.96 184.105C259.941 184.783 260.1 185.454 260.422 186.051Z" fill="black"/>
<path opacity="0.05" d="M241.555 202.684C245.609 204.094 251.099 206.316 252.769 208.477L252.893 208.632C248.452 205.585 238.697 202.814 238.697 202.814C239.652 202.825 240.606 202.781 241.555 202.684Z" fill="black"/>
<path opacity="0.05" d="M260.047 213.331C260.689 211.871 261.907 210.346 263.187 208.991C266.341 205.704 268.343 201.481 268.89 196.959L268.943 196.503C271.531 193.915 277.436 196.1 277.436 196.1C277.746 191.073 275.936 187.772 274.575 186.03L274.931 186.154C274.931 186.154 279.702 189.792 279.218 197.718C279.218 197.718 273.329 195.548 270.725 198.121L270.672 198.577C270.125 203.099 268.124 207.322 264.969 210.609C263.683 211.961 262.471 213.482 261.829 214.949C261.829 214.949 257.887 213.82 255.128 210.783C256.615 211.899 258.277 212.76 260.047 213.331Z" fill="black"/>
</g>
<path d="M261.826 194.405C261.826 194.405 269.575 205.563 273.633 208.799C277.69 212.035 278.809 207.342 278.809 207.342V196.993L271.68 196.184L271.602 197.166L271.516 198.288L264.882 191.159C264.882 191.159 258.249 185.174 256.957 188.732C255.664 192.291 261.826 194.405 261.826 194.405Z" fill="#FFD2D9"/>
<path opacity="0.1" d="M271.618 197.166C272.588 197.731 273.617 198.189 274.686 198.53C276.214 199.001 277.966 198.505 278.812 198.202V196.993L271.683 196.184L271.618 197.166Z" fill="black"/>
<path d="M278.893 195.942L279.308 197.675C279.308 197.675 276.779 198.852 274.677 198.208C273.26 197.727 271.907 197.076 270.648 196.267C270.338 196.106 271.94 194.327 271.94 194.327L278.893 195.942Z" fill="#CEDAD5"/>
<path opacity="0.1" d="M232.306 215.674C231.228 214.846 230.027 214.19 228.748 213.73C227.528 213.314 226.378 212.714 225.338 211.951" fill="black"/>
<path opacity="0.2" d="M183.054 221.578L183.317 221.56C182.933 222.536 182.388 224.923 184.656 227.53C185.473 228.449 186.467 229.194 187.579 229.721C188.69 230.248 189.896 230.545 191.125 230.595L198.657 230.948L198.415 231.444L190.642 231.088C189.413 231.038 188.207 230.741 187.095 230.214C185.984 229.687 184.99 228.942 184.173 228.022C181.194 224.613 183.054 221.578 183.054 221.578Z" fill="white"/>
<path opacity="0.05" d="M210.519 228.512C210.497 228.609 210.471 228.705 210.442 228.8C210.284 228.711 210.057 228.537 210.519 228.512Z" fill="#00FF00"/>
<path opacity="0.2" d="M197.789 232.253C199.448 233.007 211.914 230.812 213.597 230.508C213.631 230.669 213.696 230.822 213.789 230.958C213.789 230.958 199.556 233.546 197.777 232.737C196.847 232.322 196.633 231.776 196.757 231.28C196.859 231.627 197.151 231.971 197.789 232.253Z" fill="white"/>
<path opacity="0.1" d="M259.812 171.837C258.062 170.779 256.641 169.255 255.708 167.435C255.577 167.235 255.523 166.994 255.556 166.757C255.671 166.316 256.244 166.239 256.659 166.05C257.431 165.696 257.757 164.81 258.262 164.122C258.695 163.556 259.277 163.121 259.943 162.865C260.609 162.61 261.333 162.544 262.034 162.674C262.772 162.823 263.454 163.189 264.204 163.294C265.809 163.53 267.557 162.557 268.999 163.294C269.656 163.632 270.102 164.268 270.493 164.894C271.475 166.465 272.706 168.136 271.813 169.971C271.302 171.025 270.483 171.899 269.333 172.206C268.183 172.512 266.854 172.255 265.682 172.131C264.721 172.026 263.711 171.821 262.744 171.908C261.603 172.026 260.893 172.488 259.812 171.837Z" fill="black"/>
<path d="M259.812 171.511C258.062 170.453 256.641 168.929 255.708 167.11C255.577 166.909 255.523 166.668 255.556 166.431C255.671 165.991 256.244 165.913 256.659 165.724C257.431 165.371 257.757 164.485 258.262 163.796C258.695 163.23 259.277 162.795 259.943 162.54C260.609 162.284 261.333 162.218 262.034 162.349C262.772 162.498 263.454 162.863 264.204 162.969C265.809 163.204 267.557 162.231 268.999 162.969C269.656 163.307 270.102 163.942 270.493 164.568C271.475 166.14 272.706 167.81 271.813 169.645C271.302 170.699 270.483 171.573 269.333 171.88C268.183 172.187 266.854 171.93 265.682 171.806C264.721 171.7 263.711 171.496 262.744 171.583C261.603 171.7 260.893 172.165 259.812 171.511Z" fill="#844F6E"/>
<path d="M126.481 210.045C126.481 213.38 126.667 215.584 126.667 215.584C126.667 215.584 131.431 215.85 131.298 220.267C131.164 224.684 149.814 225.62 149.814 225.62C149.814 225.62 149.814 225.574 149.814 225.487C149.814 225.487 149.814 225.131 149.814 224.486C151.587 224.749 153.484 224.963 154.547 224.861C154.476 225.205 154.392 225.568 154.312 225.89C154.225 225.977 152.508 227.712 152.564 229.56C152.533 230.49 152.954 231.444 154.318 232.238C158.254 234.538 170.513 233.258 170.513 233.258C172.373 232.036 172.993 230.998 172.959 230.136C173.018 228.865 171.75 227.967 170.588 227.387C169.689 226.939 168.659 226.829 167.686 227.077C166.374 227.368 165.026 227.467 163.685 227.371C163.737 227.105 163.806 226.842 163.893 226.584C165.151 226.941 166.019 227.204 166.019 227.204C166.019 227.204 172.553 223.726 169.831 218.107C169.402 217.327 168.756 216.689 167.972 216.269C170.07 212.652 172.063 208.393 171.865 205.529C171.533 200.749 162.042 201.791 158.487 202.352L151.634 195.629C151.634 190.67 151.786 184.976 151.324 183.742C150.506 181.6 150.778 181.882 150.236 180.934L150.214 180.9C149.904 180.398 149.061 179.601 148.844 179.71C148.752 178.724 148.765 177.732 148.884 176.749C150.571 176.198 152.041 175.129 153.086 173.695C154.131 172.26 154.698 170.533 154.705 168.759C154.706 167.431 154.387 166.122 153.776 164.943L153.869 164.903L152.97 160.483C152.938 160.39 152.925 160.291 152.931 160.192C152.938 160.094 152.965 159.997 153.01 159.909C153.103 159.786 153.261 159.748 153.382 159.662C153.519 159.529 153.607 159.354 153.634 159.166C153.66 158.977 153.623 158.785 153.528 158.62C153.444 158.456 153.329 158.31 153.19 158.189C152.433 157.331 150.825 157.638 149.836 157.51C148.497 157.34 147.093 157.092 145.825 157.755C145.552 157.925 145.267 158.074 144.973 158.202C144.569 158.311 144.15 158.351 143.733 158.319C142.978 158.319 142.225 158.386 141.483 158.521C140.516 158.171 139.378 158.481 138.482 159.017C137.458 159.644 136.623 160.539 136.068 161.605C135.513 162.671 135.259 163.868 135.333 165.067C135.411 165.817 135.556 166.559 135.764 167.283L137.422 173.746C137.528 174.286 137.739 174.8 138.042 175.259C138.116 175.356 138.199 175.445 138.29 175.525C138.448 175.716 138.653 175.862 138.884 175.95C139.116 176.038 139.366 176.065 139.611 176.027C139.674 176.012 139.735 175.99 139.793 175.962C139.737 176.642 139.605 177.314 139.4 177.964C137.503 178.516 134.75 180.444 131.446 186.023C127.206 193.171 126.499 203.709 126.481 210.045Z" fill="url(#paint0_linear)"/>
<path d="M142.967 219.341H161.515V206.056H142.967V219.341Z" fill="#5F5D7E"/>
<path d="M156.912 203.161C156.912 203.161 170.724 200.266 171.118 206.056C171.511 211.846 162.963 223.413 162.963 223.413L155.214 221.836L157.448 212.89C157.448 212.89 148.636 210.916 148.11 210.786C147.583 210.656 156.912 203.161 156.912 203.161Z" fill="#5F5D7E"/>
<path opacity="0.1" d="M156.912 203.161C156.912 203.161 170.724 200.266 171.118 206.056C171.511 211.846 162.963 223.413 162.963 223.413L155.214 221.836L157.448 212.89C157.448 212.89 148.636 210.916 148.11 210.786C147.583 210.656 156.912 203.161 156.912 203.161Z" fill="black"/>
<path d="M164.15 224.997C164.15 224.997 162.836 227.496 163.22 228.549C163.604 229.603 153.881 227.102 153.881 227.102C153.881 227.102 154.671 224.077 154.538 223.692C154.405 223.308 164.15 224.997 164.15 224.997Z" fill="#5F5D7E"/>
<path d="M155.598 207.897L156.565 208.771L157.185 209.335C157.185 209.335 160.344 214.465 164.419 211.31C168.495 208.154 161.255 205.792 159.807 205.672C159.517 205.629 159.241 205.517 159.004 205.345C158.766 205.173 158.574 204.946 158.443 204.683C158.222 204.296 158.061 203.878 157.966 203.443L155.598 207.897Z" fill="#FDC2CC"/>
<path opacity="0.05" d="M155.598 207.897L156.565 208.771L157.185 209.335C157.185 209.335 160.344 214.465 164.419 211.31C168.495 208.154 161.255 205.792 159.807 205.672C159.517 205.629 159.241 205.517 159.004 205.345C158.766 205.173 158.574 204.946 158.443 204.683C158.222 204.296 158.061 203.878 157.966 203.443L155.598 207.897Z" fill="black"/>
<path opacity="0.1" d="M164.15 224.997C164.15 224.997 162.836 227.496 163.22 228.549C163.604 229.603 153.881 227.102 153.881 227.102C153.881 227.102 154.671 224.077 154.538 223.692C154.405 223.308 164.15 224.997 164.15 224.997Z" fill="black"/>
<path opacity="0.1" d="M155.598 207.897L156.565 208.771C156.565 207.085 157.684 205.535 158.45 204.664C158.228 204.278 158.067 203.86 157.972 203.424L155.598 207.897Z" fill="black"/>
<path d="M149.811 194.612L158.887 203.688C158.887 203.688 155.728 206.449 156.388 209.344L149.811 201.977V194.612Z" fill="#C4C8E2"/>
<path opacity="0.1" d="M149.876 194.612V201.98L150.93 203.161L154.058 206.663L156.454 209.348C155.796 206.453 158.952 203.691 158.952 203.691L149.876 194.612Z" fill="black"/>
<path d="M149.811 181.588C149.811 181.588 149.811 184.35 147.443 183.562C145.075 182.775 146.916 214.738 146.916 214.738C146.916 214.738 153.757 209.608 152.44 205.926C151.122 202.243 150.862 199.472 150.986 195.796C151.11 192.12 149.811 181.588 149.811 181.588Z" fill="#D39999"/>
<path d="M149.678 174.223C149.678 174.223 147.704 179.617 149.678 183.696C151.652 187.775 137.968 181.458 137.968 181.458C137.968 181.458 140.993 180.01 139.942 173.039L149.678 174.223Z" fill="#FDC2CC"/>
<path opacity="0.1" d="M150.862 198.821C150.781 200.267 150.781 201.716 150.862 203.161L153.989 206.663C153.532 205.685 153.014 204.736 152.44 203.821C151.953 203.068 151.845 200.064 151.82 196.636L150.673 195.489C150.794 197.34 150.862 198.821 150.862 198.821Z" fill="black"/>
<path d="M148.816 180.875C148.671 180.184 149.811 181.225 150.177 181.83L150.196 181.864C150.722 182.794 150.459 182.521 151.249 184.625C152.04 186.73 150.986 201.983 152.179 203.843C152.985 205.146 153.689 206.51 154.284 207.922L152.179 207.131C152.179 207.131 151.389 204.763 150.865 204.236C150.341 203.709 150.602 198.843 150.602 198.843C150.602 198.843 150.208 190.425 149.811 188.584C149.498 187.102 149.126 182.329 148.816 180.875Z" fill="#C4C8E2"/>
<path opacity="0.1" d="M148.816 180.875C148.671 180.184 149.811 181.225 150.177 181.83L150.196 181.864C150.722 182.794 150.459 182.521 151.249 184.625C152.04 186.73 150.986 201.983 152.179 203.843C152.985 205.146 153.689 206.51 154.284 207.922L152.179 207.131C152.179 207.131 151.389 204.763 150.865 204.236C150.341 203.709 150.602 198.843 150.602 198.843C150.602 198.843 150.208 190.425 149.811 188.584C149.498 187.102 149.126 182.329 148.816 180.875Z" fill="black"/>
<path d="M145.732 213.684C145.732 213.684 166.515 212.893 169.146 218.42C171.778 223.947 165.464 227.368 165.464 227.368C165.464 227.368 156.652 224.607 154.677 225C152.703 225.394 145.732 223.947 145.732 223.947V213.684Z" fill="#5F5D7E"/>
<path d="M157.309 210.265C157.309 210.265 162.045 207.633 164.677 209.335C167.308 211.037 167.045 215.649 163.363 215.779C159.68 215.909 157.706 213.675 157.706 213.675L157.309 210.265Z" fill="#FDC2CC"/>
<path d="M142.444 179.09C142.444 179.09 138.234 176.195 132.051 186.839C125.867 197.483 127.448 215.776 127.448 215.776C127.448 215.776 132.051 216.04 131.92 220.379C131.79 224.718 149.811 225.648 149.811 225.648C149.811 225.648 149.548 182.502 147.707 181.324C145.865 180.147 142.444 179.09 142.444 179.09Z" fill="#C4C8E2"/>
<path opacity="0.1" d="M142.425 186.938C143.167 187.473 143.771 188.177 144.188 188.992C144.604 189.807 144.82 190.709 144.818 191.624C144.84 195.564 144.936 204.054 145.335 205.659C145.862 207.764 153.754 210.525 157.833 210.395C157.833 210.395 159.807 214.078 157.439 214.868C155.071 215.658 140.602 214.868 140.602 214.868C140.602 214.868 134.946 208.424 134.816 202.78C134.685 197.135 133.886 190.809 134.816 189.625C135.575 188.624 138.752 184.347 142.425 186.938Z" fill="black"/>
<path d="M142.688 186.411C143.434 186.945 144.042 187.649 144.461 188.465C144.88 189.282 145.098 190.186 145.097 191.104C145.118 195.043 145.215 203.533 145.614 205.138C146.141 207.243 154.033 210.005 158.112 209.875C158.112 209.875 160.086 213.557 157.718 214.347C155.35 215.138 140.881 214.347 140.881 214.347C140.881 214.347 135.225 207.903 135.095 202.259C134.964 196.615 134.165 190.288 135.095 189.104C135.838 188.109 139.015 183.82 142.688 186.411Z" fill="#C4C8E2"/>
<path d="M169.878 227.527C171.765 228.456 173.954 230.372 169.806 233.282C169.806 233.282 157.969 234.597 154.154 232.229C150.338 229.86 154.154 226.045 154.154 226.045C154.154 226.045 162.885 228.367 167.076 227.232C168.014 226.985 169.011 227.09 169.878 227.527Z" fill="#4C4C56"/>
<path opacity="0.1" d="M169.878 227.793C171.765 228.692 173.954 230.514 169.806 233.301C169.806 233.301 157.969 234.559 154.154 232.294C150.338 230.028 154.154 226.38 154.154 226.38C154.154 226.38 162.885 228.599 167.076 227.517C168.013 227.279 169.005 227.377 169.878 227.793Z" fill="black"/>
<path opacity="0.1" d="M143.036 196.255C143.036 196.255 143.693 204.543 148.035 206.384L143.036 196.255Z" fill="black"/>
<path opacity="0.1" d="M149.548 175.144C149.164 176.284 148.903 177.463 148.77 178.659C147.939 178.938 146.724 178.237 145.797 178.237C143.386 178.237 142.698 175.541 141.194 173.898C141.194 173.166 139.955 174.874 139.812 173.963L149.548 175.144Z" fill="black"/>
<path d="M137.968 169.881C137.967 170.568 138.051 171.254 138.219 171.92L138.247 172.026C138.79 174.07 140.09 175.831 141.884 176.952C143.678 178.073 145.831 178.469 147.906 178.06C149.982 177.651 151.824 176.468 153.058 174.75C154.293 173.033 154.828 170.91 154.555 168.813C154.282 166.715 153.221 164.8 151.587 163.456C149.954 162.113 147.87 161.441 145.759 161.577C143.649 161.713 141.669 162.648 140.222 164.191C138.775 165.733 137.969 167.769 137.968 169.884V169.881Z" fill="#FDC2CC"/>
<path opacity="0.1" d="M132.054 186.981C132.913 185.468 133.897 184.029 134.995 182.679C134.112 183.84 133.305 185.058 132.581 186.324C126.397 196.98 127.978 215.262 127.978 215.262C127.978 215.262 132.581 215.525 132.451 219.864C132.333 223.761 146.836 224.901 149.808 225.093C149.808 225.54 149.808 225.781 149.808 225.781C149.808 225.781 131.787 224.852 131.917 220.512C132.048 216.173 127.445 215.909 127.445 215.909C127.445 215.909 125.879 197.637 132.054 186.981Z" fill="black"/>
<path opacity="0.1" d="M139.019 160.418C139.886 159.894 140.984 159.587 141.92 159.931C142.635 159.799 143.362 159.733 144.089 159.733C144.488 159.763 144.888 159.724 145.273 159.618C145.559 159.493 145.834 159.347 146.098 159.181C147.322 158.53 148.68 158.775 149.972 158.943C151.023 159.079 152.799 158.698 153.407 159.9C153.499 160.063 153.535 160.25 153.509 160.435C153.484 160.62 153.399 160.791 153.267 160.923C153.149 161.01 152.998 161.044 152.908 161.168C152.864 161.255 152.838 161.349 152.831 161.446C152.824 161.543 152.836 161.64 152.867 161.732L153.735 166.072C153.336 166.266 152.9 166.377 152.456 166.397C152.012 166.417 151.569 166.347 151.153 166.189C150.921 166.098 150.693 165.994 150.471 165.879C149.824 166.301 149.154 165.982 148.37 166.149C147.906 166.282 147.494 166.552 147.186 166.924C146.274 167.896 145.664 169.111 145.428 170.423C145.342 170.916 145.227 171.524 144.75 171.663C144.569 171.698 144.385 171.717 144.201 171.719C143.339 171.831 142.986 172.85 142.431 173.523C141.755 174.341 140.543 174.874 140.469 175.934C140.451 176.207 140.509 176.508 140.358 176.737C140.255 176.874 140.104 176.967 139.936 176.997C139.671 177.035 139.4 176.997 139.155 176.887C138.911 176.777 138.702 176.601 138.554 176.378C138.265 175.925 138.066 175.421 137.968 174.893L136.365 168.539C136.164 167.829 136.024 167.103 135.947 166.369C135.875 165.192 136.122 164.018 136.663 162.971C137.204 161.923 138.018 161.041 139.019 160.418Z" fill="black"/>
<path d="M138.898 160.3C139.766 159.776 140.863 159.469 141.799 159.813C142.514 159.681 143.241 159.615 143.969 159.615C144.367 159.645 144.767 159.606 145.153 159.5C145.438 159.375 145.713 159.229 145.977 159.063C147.201 158.412 148.559 158.657 149.851 158.825C150.902 158.961 152.678 158.58 153.286 159.782C153.378 159.945 153.414 160.133 153.389 160.317C153.363 160.502 153.278 160.674 153.146 160.805C153.029 160.892 152.877 160.926 152.787 161.05C152.743 161.137 152.717 161.231 152.71 161.328C152.703 161.425 152.716 161.522 152.746 161.614L153.614 165.954C153.215 166.148 152.78 166.259 152.336 166.279C151.892 166.3 151.448 166.229 151.032 166.071C150.8 165.98 150.572 165.876 150.351 165.762C149.703 166.183 149.033 165.864 148.249 166.031C147.785 166.164 147.373 166.434 147.065 166.806C146.153 167.778 145.543 168.994 145.308 170.305C145.221 170.798 145.106 171.406 144.629 171.545C144.448 171.58 144.264 171.599 144.08 171.601C143.218 171.713 142.865 172.732 142.31 173.405C141.635 174.223 140.423 174.756 140.348 175.817C140.33 176.089 140.389 176.39 140.237 176.619C140.134 176.756 139.984 176.849 139.815 176.88C139.55 176.917 139.279 176.879 139.035 176.769C138.79 176.659 138.581 176.483 138.433 176.26C138.144 175.807 137.945 175.303 137.847 174.775L136.244 168.421C136.043 167.711 135.903 166.985 135.826 166.251C135.754 165.075 136.002 163.9 136.542 162.853C137.083 161.805 137.897 160.923 138.898 160.3Z" fill="#865A61"/>
</g>
<defs>
<linearGradient id="paint0_linear" x1="172.956" y1="195.468" x2="126.481" y2="195.468" gradientUnits="userSpaceOnUse">
<stop stop-color="#808080" stop-opacity="0.25"/>
<stop offset="0.54" stop-color="#808080" stop-opacity="0.12"/>
<stop offset="1" stop-color="#808080" stop-opacity="0.1"/>
</linearGradient>
<clipPath id="clip0">
<rect width="354.041" height="242.11" fill="white"/>
</clipPath>
</defs>
</svg>
